<?xml version="1.0" encoding="UTF-8"?>
<svg version="1.1" xmlns="http://www.w3.org/2000/svg" width="467" height="188">
<path d="M0 0 C154.11 0 308.22 0 467 0 C467 62.04 467 124.08 467 188 C312.89 188 158.78 188 0 188 C0 125.96 0 63.92 0 0 Z " fill="#020202" transform="translate(0,0)"/>
<path d="M0 0 C4.65486735 1.34691064 8.28957107 3.24719759 12.3125 5.9375 C13.36050781 6.62714844 14.40851563 7.31679687 15.48828125 8.02734375 C18 10 18 10 19 13 C15.06739118 42.79451089 -1.6396513 69.4797811 -25 88 C-48.29758773 104.56904254 -48.29758773 104.56904254 -55.42504883 103.70654297 C-57.98351957 103.00452208 -59.9576935 102.12170888 -62.2578125 100.8125 C-63.43512939 100.14275146 -63.43512939 100.14275146 -64.63623047 99.45947266 C-65.86817139 98.73703369 -65.86817139 98.73703369 -67.125 98 C-67.97594238 97.50161621 -68.82688477 97.00323242 -69.70361328 96.48974609 C-76.3343563 92.53303628 -82.34224055 88.27776068 -88 83 C-88.79229004 82.26112549 -88.79229004 82.26112549 -89.60058594 81.50732422 C-99.16010561 72.50384538 -106.29226777 63.14743856 -112.8125 51.75 C-113.19825195 51.07606201 -113.58400391 50.40212402 -113.98144531 49.70776367 C-116.1098822 45.89140268 -117.76230113 42.21734428 -119 38 C-118.44763672 37.93006836 -117.89527344 37.86013672 -117.32617188 37.78808594 C-107.90326028 36.57411514 -98.60686617 35.35044956 -89.4375 32.8125 C-82.81824862 31.03065444 -76.82657439 30.53455175 -70 31 C-70 30.34 -70 29.68 -70 29 C-70.99 29 -71.98 29 -73 29 C-71.86719004 25.60157012 -71.55373409 25.34523961 -68.5 23.8125 C-59.95898705 20.27310423 -48.76370104 20.51689752 -40.1875 23.8125 C-37.15854902 25.21171452 -34.62302879 26.94283809 -32 29 C-33.55500981 32.81684226 -36.03595495 35.19195732 -39 38 C-43 36 -43 36 -44.71484375 34.953125 C-50.04747421 32.72891674 -57.75773228 32.87878799 -63.19140625 34.7578125 C-64.8568773 35.7393198 -66.43116528 36.87043901 -68 38 C-77.73736628 43.24610044 -86.84195724 46.40574701 -98 46 C-91.4922587 61.80451459 -77.20723316 73.36865659 -63.0625 82.1875 C-62.43569336 82.58678711 -61.80888672 82.98607422 -61.16308594 83.39746094 C-58.47057031 85.00370076 -56.55960101 86.02091185 -53.38671875 85.90234375 C-45.00895406 82.73497281 -37.7991689 77.74494236 -31 72 C-30.19820313 71.34386719 -29.39640625 70.68773437 -28.5703125 70.01171875 C-13.01280983 56.75633875 -2.99700421 38.72375219 2 19 C2 17.35 2 15.7 2 14 C-0.97 12.35 -3.94 10.7 -7 9 C-5.04783565 5.09567131 -3.12613393 2.96160056 0 0 Z " fill="#B8B4B2" transform="translate(156,72)"/>
<path d="M0 0 C0.83337891 0.36182373 1.66675781 0.72364746 2.52539062 1.09643555 C11.33272249 4.77237703 20.12120103 7.59035121 29.36816406 9.91821289 C30.99449479 10.33666204 32.6091981 10.79987912 34.22070312 11.2722168 C44.95209484 14.32268529 56.2209257 15.15786619 67.27539062 16.40893555 C67.3001025 21.48095341 67.31825627 26.55293625 67.33032227 31.625 C67.3353522 33.35059215 67.34217688 35.07618003 67.35083008 36.80175781 C67.36295424 39.28150484 67.36863232 41.76119554 67.37304688 44.2409668 C67.37820816 45.012939 67.38336945 45.78491119 67.38868713 46.58027649 C67.38902381 49.79195835 67.29865641 52.3391382 66.27539062 55.40893555 C64.57783123 54.8253995 62.91994337 54.12842737 61.27539062 53.40893555 C60.60701172 53.11954102 59.93863281 52.83014648 59.25 52.53198242 C56.92808725 51.34229477 55.1399207 50.24286902 53.27539062 48.40893555 C52.29242293 45.0910495 52.50986211 42.02022154 52.77539062 38.59643555 C52.81148437 37.7127832 52.84757813 36.82913086 52.88476562 35.91870117 C52.9786811 33.74690582 53.12217555 31.57735439 53.27539062 29.40893555 C52.47359375 29.3109668 51.67179688 29.21299805 50.84570312 29.11206055 C31.77269676 26.60359259 12.95697499 22.22021878 -4.56445312 14.1315918 C-11.39955492 12.56855863 -18.06199786 15.79765975 -24.42578125 18.17651367 C-33.8958749 21.71210341 -43.30508258 24.44600139 -53.22460938 26.40893555 C-54.26810547 26.61623291 -55.31160156 26.82353027 -56.38671875 27.03710938 C-61.58184649 28.00759516 -66.44074308 28.64641268 -71.72460938 28.40893555 C-71.46155361 38.20776291 -70.51657394 47.74413771 -68.84960938 57.40893555 C-68.6881543 58.36292236 -68.52669922 59.31690918 -68.36035156 60.29980469 C-67.42277415 65.51337229 -66.19953743 70.38687387 -64.30615234 75.33862305 C-63.72460938 77.40893555 -63.72460938 77.40893555 -63.72460938 82.40893555 C-70.65460938 83.39893555 -70.65460938 83.39893555 -77.72460938 84.40893555 C-84.18984071 66.57381462 -85.90973075 49.1145593 -85.78710938 30.22143555 C-85.782079 28.87443202 -85.77751884 27.52742666 -85.7734375 26.18041992 C-85.76176291 22.92321018 -85.74538821 19.66609777 -85.72460938 16.40893555 C-84.9549585 16.30871094 -84.18530762 16.20848633 -83.39233398 16.10522461 C-62.82140428 13.40248112 -62.82140428 13.40248112 -42.72460938 8.40893555 C-41.32079011 8.02071638 -39.91576928 7.63682381 -38.50976562 7.2565918 C-30.40197408 5.0282081 -23.04022803 2.43947369 -15.55664062 -1.4543457 C-9.67809101 -3.81387389 -5.56205734 -2.36002127 0 0 Z " fill="#B9B5B2" transform="translate(110.724609375,16.591064453125)"/>
<path d="M0 0 C-1.82504909 3.92300272 -4.18270826 6.73787272 -7 10 C-9.53617266 8.74169326 -12.05742242 7.45660884 -14.57421875 6.16015625 C-32.59644586 -3.06657608 -52.334508 -8.30048946 -72.4375 -2 C-80.16473224 0.60719155 -87.12546673 4.67119233 -94 9 C-95.17825358 8.09827532 -96.34231577 7.17798498 -97.5 6.25 C-98.1496875 5.73953125 -98.799375 5.2290625 -99.46875 4.703125 C-101 3 -101 3 -101 -1 C-98.88854546 -2.72810689 -96.94116809 -4.10163725 -94.625 -5.5 C-93.98304687 -5.89654785 -93.34109375 -6.2930957 -92.6796875 -6.70166016 C-87.63513303 -9.75235447 -82.66571375 -12.30028588 -77 -14 C-76.02546875 -14.29648437 -75.0509375 -14.59296875 -74.046875 -14.8984375 C-47.32773317 -21.79982721 -22.55170587 -14.65860881 0 0 Z " fill="#B7B3B0" transform="translate(153,69)"/>
<path d="M0 0 C3.97217747 -1.02141706 7.02922336 -1.09253739 11 0 C16.33968275 3.87164836 20.70562311 9.03064411 25 14 C27.81687595 12.72496117 29.77534928 11.43478388 31.8828125 9.1796875 C40.45633951 0.39621273 40.45633951 0.39621273 45.07421875 -0.7890625 C47.49726685 -0.75449691 49.64898986 -0.57315823 52 0 C51.49351443 3.98007582 50.6817147 5.78658518 47.65625 8.41015625 C46.65271484 9.30637695 46.65271484 9.30637695 45.62890625 10.22070312 C44.92636719 10.82849609 44.22382813 11.43628906 43.5 12.0625 C42.10770203 13.27469337 40.72196669 14.49447663 39.34375 15.72265625 C38.72693359 16.25640869 38.11011719 16.79016113 37.47460938 17.34008789 C35.77032253 19.25853926 35.21154802 20.44644976 35 23 C36.61070069 25.019477 38.12230846 26.63778339 40 28.375 C40.50313721 28.86033203 41.00627441 29.34566406 41.5246582 29.84570312 C44.31825852 32.51640469 47.20088504 35.04912835 50.1875 37.5 C51.115625 38.325 52.04375 39.15 53 40 C53 40.99 53 41.98 53 43 C47.84652551 43.79359588 43.69849746 44.1164281 39.21875 41.171875 C36.69171606 38.8731875 34.32562602 36.50130281 32 34 C30.96170575 32.97573676 29.92088742 31.95400856 28.875 30.9375 C28.25625 30.298125 27.6375 29.65875 27 29 C22.95864413 30.59930434 20.32092848 33.48660409 17.375 36.5625 C11.20192391 42.95488274 11.20192391 42.95488274 7.3984375 43.09765625 C5.90183594 43.08025391 5.90183594 43.08025391 4.375 43.0625 C3.37210937 43.05347656 2.36921875 43.04445312 1.3359375 43.03515625 C0.56507813 43.02355469 -0.20578125 43.01195312 -1 43 C-0.43828631 39.44504486 0.6570021 38.10163615 3.4375 35.875 C8.61190011 31.56456506 13.28509799 26.80185717 18 22 C15.12377024 18.48460807 12.17974907 15.14185201 8.9296875 11.96875 C8.38731445 11.43862305 7.84494141 10.90849609 7.28613281 10.36230469 C6.18519804 9.29373132 5.07781102 8.23176282 3.96386719 7.17675781 C2.58682204 5.83962702 1.28678259 4.42420598 0 3 C0 2.01 0 1.02 0 0 Z " fill="#B9B5B3" transform="translate(287,85)"/>
<path d="M0 0 C1.14900032 0.00493217 1.14900032 0.00493217 2.32121277 0.00996399 C3.92899158 0.02033437 5.5367345 0.04019814 7.14428711 0.0690918 C9.61527891 0.11345739 12.08529846 0.13057537 14.55664062 0.14257812 C16.12110791 0.15599119 17.68556317 0.17091111 19.25 0.1875 C20.36239799 0.1985804 20.36239799 0.1985804 21.49726868 0.20988464 C26.67461202 0.30742452 26.67461202 0.30742452 27.79296875 1.42578125 C27.91796875 4.92578125 27.91796875 4.92578125 27.79296875 8.42578125 C25.88583219 10.33291781 22.48506399 9.64734936 19.94921875 9.70703125 C18.92278259 9.73464539 18.92278259 9.73464539 17.87561035 9.76281738 C14.9366058 9.8417337 11.99736339 9.90931408 9.05810547 9.97802734 C6.91752443 10.02965897 4.77714656 10.08694748 2.63671875 10.14453125 C1.34958984 10.17482422 0.06246094 10.20511719 -1.26367188 10.23632812 C-4.09465071 10.09332515 -4.09465071 10.09332515 -5.20703125 11.42578125 C-5.53703125 14.06578125 -5.86703125 16.70578125 -6.20703125 19.42578125 C4.68296875 19.42578125 15.57296875 19.42578125 26.79296875 19.42578125 C26.79296875 22.06578125 26.79296875 24.70578125 26.79296875 27.42578125 C25.79296875 28.42578125 25.79296875 28.42578125 22.74194336 28.53930664 C21.39305604 28.53914759 20.04416261 28.53345737 18.6953125 28.5234375 C17.63202477 28.52131508 17.63202477 28.52131508 16.54725647 28.51914978 C14.27495163 28.51353568 12.002744 28.50098088 9.73046875 28.48828125 C8.19336079 28.48326806 6.6562513 28.47870484 5.11914062 28.47460938 C1.34368208 28.46441095 -2.43156529 28.44483857 -6.20703125 28.42578125 C-6.20703125 33.37578125 -6.20703125 38.32578125 -6.20703125 43.42578125 C-9.83703125 43.42578125 -13.46703125 43.42578125 -17.20703125 43.42578125 C-17.28138347 38.67524614 -17.33572816 33.92505238 -17.37182617 29.17407227 C-17.38688001 27.55910336 -17.40732773 25.94417512 -17.43334961 24.3293457 C-17.46988411 22.0033157 -17.4867914 19.67782784 -17.5 17.3515625 C-17.51548386 16.63366043 -17.53096771 15.91575836 -17.54692078 15.17610168 C-17.54840892 10.70805489 -17.06627088 7.89784936 -14.20703125 4.42578125 C-9.6251417 0.50974 -5.84644953 -0.13993615 0 0 Z " fill="#B7B3B1" transform="translate(389.20703125,84.57421875)"/>
<path d="M0 0 C1.92682617 0.00290039 1.92682617 0.00290039 3.89257812 0.00585938 C4.55281982 0.01206299 5.21306152 0.0182666 5.89331055 0.0246582 C7.92965022 0.04307439 9.96553831 0.04516649 12.00195312 0.04492188 C21.96514058 0.09014058 21.96514058 0.09014058 23.10546875 1.23046875 C23.23046875 4.73046875 23.23046875 4.73046875 23.10546875 8.23046875 C21.35414669 9.98179081 18.87687383 9.42242072 16.49609375 9.4765625 C14.77519531 9.52586914 14.77519531 9.52586914 13.01953125 9.57617188 C10.59253338 9.63697619 8.16544597 9.69431375 5.73828125 9.74804688 C4.00964844 9.79928711 4.00964844 9.79928711 2.24609375 9.8515625 C1.18938477 9.87661865 0.13267578 9.9016748 -0.95605469 9.92749023 C-5.19775812 10.36484101 -7.98514921 11.44397618 -11.20703125 14.23046875 C-13.63629062 18.54915207 -13.57265311 22.37990295 -12.89453125 27.23046875 C-11.5090497 30.25333759 -10.225817 31.899183 -7.89453125 34.23046875 C-4.52192593 35.40935885 -1.14548108 35.42972984 2.40234375 35.546875 C3.60761719 35.58876953 4.81289063 35.63066406 6.0546875 35.67382812 C7.30894531 35.71314453 8.56320312 35.75246094 9.85546875 35.79296875 C11.12519531 35.83615234 12.39492188 35.87933594 13.703125 35.92382812 C16.8371324 36.02986597 19.97121808 36.13192933 23.10546875 36.23046875 C23.14788598 38.5634165 23.14639812 40.89749442 23.10546875 43.23046875 C20.4127573 45.9231802 12.67216989 44.5049016 8.79760742 44.52563477 C6.57601292 44.5427147 4.3559593 44.58655924 2.13476562 44.63085938 C-6.07026833 44.72151121 -12.9862249 44.73181099 -19.39624023 38.85327148 C-24.77893012 32.98255105 -25.36973064 26.85330823 -25.19921875 19.19921875 C-24.64873607 13.83554137 -22.96399871 10.20306752 -19.05859375 6.48046875 C-13.09158649 1.72515262 -7.67100884 -0.02677582 0 0 Z " fill="#B7B3B1" transform="translate(253.89453125,83.76953125)"/>
<path d="M0 0 C-1.55500981 3.81684226 -4.03595495 6.19195732 -7 9 C-9.06862593 7.9821047 -11.10749061 6.94001905 -13.12109375 5.81640625 C-24.88388235 -0.55097173 -37.01413564 -2.71063156 -50.05078125 0.828125 C-55.22041682 2.59097772 -59.64630044 4.70530844 -64 8 C-68.2742558 6.4169423 -70.26531794 3.49431596 -73 0 C-66.90751135 -7.39802193 -57.40051725 -11.44411952 -48.04296875 -12.75390625 C-30.27661564 -14.190723 -14.09973909 -11.84787514 0 0 Z " fill="#B6B2B0" transform="translate(139,86)"/>
<path d="M0 0 C4.42977671 2.1357852 7.19613671 4.39012714 9 9 C9.71427182 14.92250384 9.56423474 20.01007136 6 25 C2.34749588 28.46987891 -0.5965683 29.30013186 -5.5 29.5 C-10.4034317 29.30013186 -13.34749588 28.46987891 -17 25 C-20.53497954 20.05102865 -20.86128681 14.88545986 -20 9 C-15.65639169 0.151909 -9.24560269 -1.22188582 0 0 Z " fill="#B7B3B0" transform="translate(107,113)"/>
<path d="M0 0 C3.3 0 6.6 0 10 0 C10 14.19 10 28.38 10 43 C6.37 43 2.74 43 -1 43 C-1.02464574 37.03686834 -1.042834 31.07376605 -1.05493164 25.1105957 C-1.05997278 23.08031702 -1.06680557 21.05004198 -1.07543945 19.01977539 C-1.08751467 16.10822653 -1.09323034 13.1967255 -1.09765625 10.28515625 C-1.10281754 9.3716188 -1.10797882 8.45808136 -1.11329651 7.51686096 C-1.11349168 5.34424573 -1.06211805 3.17172704 -1 1 C-0.67 0.67 -0.34 0.34 0 0 Z " fill="#B5B1AF" transform="translate(351,85)"/>
<path d="M0 0 C3.3 0 6.6 0 10 0 C10 14.19 10 28.38 10 43 C6.7 43 3.4 43 0 43 C-1.92257175 41.07742825 -1.12908424 38.21914892 -1.13894653 35.66125488 C-1.1369223 34.77272827 -1.13489807 33.88420166 -1.1328125 32.96875 C-1.13376923 32.06249878 -1.13472595 31.15624756 -1.13571167 30.22253418 C-1.13639353 28.30248953 -1.13453882 26.38244259 -1.13037109 24.46240234 C-1.12502292 21.51264296 -1.13031588 18.56303586 -1.13671875 15.61328125 C-1.13605797 13.75260383 -1.13477681 11.8919265 -1.1328125 10.03125 C-1.13483673 9.14272339 -1.13686096 8.25419678 -1.13894653 7.33874512 C-1.11494988 1.11494988 -1.11494988 1.11494988 0 0 Z " fill="#B7B3B1" transform="translate(209,85)"/>
<path d="M0 0 C3.3 0 6.6 0 10 0 C10 14.19 10 28.38 10 43 C6.7 43 3.4 43 0 43 C0 28.81 0 14.62 0 0 Z " fill="#BFBAB8" transform="translate(428,85)"/>
<path d="M0 0 C9.1796875 -0.1953125 9.1796875 -0.1953125 12 0 C14.64194427 2.64194427 14.85205998 4.3014996 15 8 C13.4375 10.375 13.4375 10.375 11 12 C7.75 12.25 7.75 12.25 5 12 C5 13.98 5 15.96 5 18 C3.68 18 2.36 18 1 18 C0.67 12.06 0.34 6.12 0 0 Z " fill="#151514" transform="translate(95,119)"/>
<path d="M0 0 C1.79133978 -0.05391993 3.58313899 -0.09275571 5.375 -0.125 C6.37273437 -0.14820312 7.37046875 -0.17140625 8.3984375 -0.1953125 C11 0 11 0 13 2 C13.39764263 3.98821313 13.73775349 5.98944339 14 8 C12.375 9.5625 12.375 9.5625 10 11 C6.75 10.6875 6.75 10.6875 4 10 C3.95758277 7.66705225 3.95907063 5.33297433 4 3 C4.33 2.67 4.66 2.34 5 2 C3.35 1.67 1.7 1.34 0 1 C0 0.67 0 0.34 0 0 Z " fill="#1B1A19" transform="translate(96,119)"/>
<path d="M0 0 C1.65 0 3.3 0 5 0 C5 2.33333333 5 4.66666667 5 7 C3.35 7 1.7 7 0 7 C0 4.69 0 2.38 0 0 Z " fill="#807C7A" transform="translate(100,122)"/>
<path d="M0 0 C1.65 0 3.3 0 5 0 C5.33 0.99 5.66 1.98 6 3 C4.02 3 2.04 3 0 3 C0 2.01 0 1.02 0 0 Z " fill="#AFAAA8" transform="translate(100,122)"/>
</svg>
